<svg xmlns="http://www.w3.org/2000/svg" viewBox="0 0 600.00 319.20"><g fill="none" stroke="#fff" stroke-width="7" stroke-linejoin="round" stroke-linecap="round"><path d="M216.96,66.92 L216.96,66.92"/><path d="M216.96,66.92 L217.25,67.00"/><path d="M217.40,67.04 L217.40,67.04"/><path d="M217.40,67.04 L217.81,67.15"/><path d="M219.96,66.85 L219.96,66.85"/><path d="M218.02,67.21 L218.02,67.21"/><path d="M219.96,66.85 L220.15,66.88"/><path d="M219.76,66.83 L219.39,67.01"/><path d="M218.02,67.21 L218.22,67.26"/><path d="M220.35,66.90 L220.35,66.90"/><path d="M220.54,66.92 L220.54,66.92"/><path d="M218.43,67.32 L218.43,67.32"/><path d="M219.27,67.18 L219.27,67.18"/><path d="M223.83,66.41 L223.43,66.49"/><path d="M223.31,66.53 L223.31,66.53"/><path d="M223.28,66.54 L223.28,66.54"/><path d="M220.54,66.92 L220.91,66.97"/><path d="M223.96,66.42 L223.96,66.42"/><path d="M218.43,67.32 L218.72,67.39"/><path d="M223.28,66.54 L222.93,66.65"/><path d="M221.09,66.99 L221.09,66.99"/><path d="M218.82,67.40 L218.82,67.40"/><path d="M224.13,66.46 L224.13,66.46"/><path d="M218.82,67.40 L219.27,67.18"/><path d="M222.74,66.72 L222.74,66.72"/><path d="M222.74,66.72 L222.35,66.84"/><path d="M222.20,66.88 L222.20,66.88"/><path d="M222.04,66.93 L222.04,66.93"/><path d="M221.09,66.99 L221.49,67.03"/><path d="M221.56,67.02 L221.56,67.02"/><path d="M224.13,66.46 L224.32,66.53"/><path d="M221.61,67.02 L221.61,67.02"/><path d="M222.04,66.93 L221.61,67.02"/><path d="M224.48,66.61 L224.48,66.61"/><path d="M224.63,66.71 L224.63,66.71"/><path d="M224.63,66.71 L224.77,66.79"/><path d="M224.90,66.87 L224.90,66.87"/><path d="M224.90,66.87 L225.04,66.96"/><path d="M225.18,67.05 L225.18,67.05"/><path d="M225.32,67.14 L225.32,67.14"/><path d="M225.32,67.14 L225.58,67.32"/><path d="M225.73,67.42 L225.73,67.42"/><path d="M225.88,67.53 L225.88,67.53"/><path d="M226.03,67.64 L226.03,67.64"/><path d="M226.19,67.74 L226.19,67.74"/><path d="M226.19,67.74 L226.33,67.85"/><path d="M226.47,67.95 L226.47,67.95"/><path d="M226.65,68.07 L226.65,68.07"/><path d="M226.65,68.07 L226.82,68.17"/><path d="M227.00,68.28 L227.00,68.28"/><path d="M227.17,68.36 L227.17,68.36"/><path d="M227.17,68.36 L227.26,68.40"/><path d="M227.36,68.47 L227.36,68.47"/><path d="M227.36,68.47 L227.44,68.53"/><path d="M227.52,68.59 L227.52,68.59"/><path d="M227.52,68.59 L227.73,68.87"/><path d="M227.81,69.03 L227.81,69.03"/><path d="M227.81,69.03 L227.95,69.32"/><path d="M228.01,69.44 L228.01,69.44"/><path d="M228.01,69.44 L228.07,69.55"/><path d="M228.14,69.67 L228.14,69.67"/><path d="M228.14,69.67 L228.21,69.80"/><path d="M228.32,69.98 L228.32,69.98"/><path d="M228.32,69.98 L228.41,70.11"/><path d="M228.48,70.21 L228.48,70.21"/><path d="M228.59,70.36 L228.59,70.36"/><path d="M228.59,70.36 L228.71,70.52"/><path d="M228.83,70.68 L228.83,70.68"/><path d="M228.83,70.68 L229.08,71.00"/><path d="M229.15,71.10 L229.15,71.10"/><path d="M229.18,71.14 L229.18,71.14"/><path d="M229.18,71.14 L229.38,71.41"/><path d="M229.46,71.54 L229.46,71.54"/><path d="M229.55,71.68 L229.55,71.68"/><path d="M229.55,71.68 L229.65,71.86"/><path d="M229.70,71.98 L229.70,71.98"/><path d="M229.76,72.14 L229.76,72.14"/><path d="M229.76,72.14 L229.91,72.58"/><path d="M229.98,72.74 L229.98,72.74"/><path d="M229.98,72.74 L230.19,73.02"/><path d="M230.26,73.08 L230.26,73.08"/><path d="M230.36,73.16 L230.36,73.16"/><path d="M230.36,73.16 L230.65,73.38"/><path d="M230.79,73.49 L230.79,73.49"/><path d="M230.79,73.49 L230.96,73.63"/><path d="M231.13,73.76 L231.13,73.76"/><path d="M231.13,73.76 L231.42,74.01"/><path d="M231.57,74.14 L231.57,74.14"/><path d="M231.57,74.14 L231.88,74.40"/><path d="M232.03,74.53 L232.03,74.53"/><path d="M232.03,74.53 L232.19,74.68"/><path d="M232.30,74.80 L232.30,74.80"/><path d="M232.43,74.94 L232.43,74.94"/><path d="M232.43,74.94 L232.59,75.11"/><path d="M232.68,75.22 L232.68,75.22"/><path d="M232.68,75.22 L232.88,75.47"/><path d="M232.99,75.61 L232.99,75.61"/><path d="M233.08,75.75 L233.08,75.75"/><path d="M233.08,75.75 L233.17,75.90"/><path d="M233.24,76.03 L233.24,76.03"/><path d="M233.24,76.03 L233.32,76.17"/><path d="M233.37,76.30 L233.37,76.30"/><path d="M233.37,76.30 L233.42,76.44"/><path d="M233.48,76.62 L233.48,76.62"/><path d="M233.54,76.81 L233.54,76.81"/><path d="M233.60,77.00 L233.60,77.00"/><path d="M233.60,77.00 L233.67,77.18"/><path d="M233.73,77.37 L233.73,77.37"/><path d="M233.79,77.56 L233.79,77.56"/><path d="M233.79,77.56 L233.87,77.76"/><path d="M233.96,77.95 L233.96,77.95"/><path d="M234.05,78.13 L234.05,78.13"/><path d="M234.05,78.13 L234.14,78.25"/><path d="M234.24,78.39 L234.24,78.39"/><path d="M234.24,78.39 L234.33,78.50"/><path d="M234.42,78.60 L234.42,78.60"/><path d="M234.52,78.67 L234.52,78.67"/><path d="M234.52,78.67 L234.82,78.84"/><path d="M234.95,78.90 L234.95,78.90"/><path d="M235.13,78.96 L235.13,78.96"/><path d="M235.13,78.96 L235.31,79.03"/><path d="M235.49,79.10 L235.49,79.10"/><path d="M235.69,79.17 L235.69,79.17"/><path d="M235.69,79.17 L235.88,79.27"/><path d="M236.08,79.36 L236.08,79.36"/><path d="M236.08,79.36 L236.32,79.49"/><path d="M236.47,79.59 L236.47,79.59"/><path d="M236.65,79.70 L236.65,79.70"/><path d="M236.65,79.70 L236.84,79.80"/><path d="M237.02,79.91 L237.02,79.91"/><path d="M237.02,79.91 L237.23,80.03"/><path d="M237.37,80.10 L237.37,80.10"/><path d="M237.37,80.10 L237.50,80.16"/><path d="M237.63,80.20 L237.63,80.20"/><path d="M237.63,80.20 L237.88,80.23"/><path d="M238.00,80.23 L238.00,80.23"/><path d="M238.00,80.23 L238.13,80.22"/><path d="M238.32,80.19 L238.32,80.19"/><path d="M238.32,80.19 L238.50,80.17"/><path d="M238.64,80.16 L238.64,80.16"/><path d="M238.79,80.16 L238.79,80.16"/><path d="M238.79,80.16 L239.22,80.34"/><path d="M239.31,80.40 L239.31,80.40"/><path d="M239.35,80.43 L239.35,80.43"/><path d="M239.35,80.43 L239.67,80.66"/><path d="M239.68,80.67 L239.68,80.67"/><path d="M239.85,80.80 L239.85,80.80"/><path d="M239.85,80.80 L240.04,80.93"/><path d="M240.16,81.03 L240.16,81.03"/><path d="M240.16,81.03 L240.44,81.27"/><path d="M240.54,81.38 L240.54,81.38"/><path d="M240.63,81.51 L240.63,81.51"/><path d="M252.25,79.53 L252.25,79.53"/><path d="M252.25,79.53 L252.51,79.51"/><path d="M252.70,79.51 L252.70,79.51"/><path d="M252.00,79.56 L251.68,79.69"/><path d="M252.89,79.52 L252.89,79.52"/><path d="M251.62,79.75 L251.62,79.75"/><path d="M240.63,81.51 L240.75,81.75"/><path d="M252.89,79.52 L253.11,79.54"/><path d="M253.32,79.57 L253.32,79.57"/><path d="M251.62,79.75 L251.45,79.94"/><path d="M240.78,81.89 L240.78,81.89"/><path d="M253.32,79.57 L253.53,79.59"/><path d="M253.74,79.62 L253.74,79.62"/><path d="M253.74,79.62 L253.91,79.64"/><path d="M251.29,80.11 L251.29,80.11"/><path d="M240.78,81.89 L240.80,82.03"/><path d="M254.04,79.64 L254.04,79.64"/><path d="M254.04,79.64 L254.20,79.65"/><path d="M254.37,79.65 L254.37,79.65"/><path d="M251.29,80.11 L251.17,80.23"/><path d="M254.53,79.65 L254.53,79.65"/><path d="M251.10,80.29 L251.10,80.29"/><path d="M254.53,79.65 L254.70,79.65"/><path d="M254.84,79.66 L254.84,79.66"/><path d="M254.96,79.67 L254.96,79.67"/><path d="M240.80,82.24 L240.80,82.24"/><path d="M250.92,80.42 L250.92,80.42"/><path d="M254.96,79.67 L255.22,79.72"/><path d="M250.92,80.42 L250.74,80.56"/><path d="M255.35,79.75 L255.35,79.75"/><path d="M250.58,80.67 L250.58,80.67"/><path d="M255.48,79.79 L255.48,79.79"/><path d="M240.80,82.24 L240.81,82.50"/><path d="M250.58,80.67 L250.23,80.86"/><path d="M250.04,80.94 L250.04,80.94"/><path d="M240.82,82.62 L240.82,82.62"/><path d="M255.48,79.79 L255.81,79.92"/><path d="M249.85,81.02 L249.85,81.02"/><path d="M249.85,81.02 L249.66,81.10"/><path d="M249.46,81.17 L249.46,81.17"/><path d="M240.83,82.74 L240.83,82.74"/><path d="M255.98,80.00 L255.98,80.00"/><path d="M249.24,81.23 L249.24,81.23"/><path d="M249.24,81.23 L248.50,81.39"/><path d="M248.30,81.48 L248.30,81.48"/><path d="M248.17,81.55 L248.17,81.55"/><path d="M255.98,80.00 L256.33,80.16"/><path d="M243.47,82.50 L243.47,82.50"/><path d="M256.33,80.16 L256.33,80.16"/><path d="M243.89,82.43 L243.59,82.46"/><path d="M243.47,82.50 L243.38,82.54"/><path d="M244.02,82.46 L244.02,82.46"/><path d="M256.44,80.21 L256.44,80.21"/><path d="M240.83,82.74 L240.90,83.06"/><path d="M248.17,81.55 L247.79,81.82"/><path d="M243.26,82.64 L243.26,82.64"/><path d="M244.16,82.50 L244.16,82.50"/><path d="M243.26,82.64 L243.18,82.72"/><path d="M247.68,81.92 L247.68,81.92"/><path d="M244.16,82.50 L244.32,82.54"/><path d="M256.44,80.21 L256.70,80.32"/><path d="M240.94,83.18 L240.94,83.18"/><path d="M244.47,82.58 L244.47,82.58"/><path d="M247.57,82.04 L247.57,82.04"/><path d="M256.83,80.37 L256.83,80.37"/><path d="M243.04,82.87 L243.04,82.87"/><path d="M240.94,83.18 L240.98,83.25"/><path d="M244.47,82.58 L244.62,82.62"/><path d="M247.57,82.04 L247.43,82.16"/><path d="M244.75,82.64 L244.75,82.64"/><path d="M256.99,80.44 L256.99,80.44"/><path d="M241.03,83.33 L241.03,83.33"/><path d="M243.04,82.87 L242.92,83.01"/><path d="M244.75,82.64 L244.90,82.66"/><path d="M247.24,82.29 L247.24,82.29"/><path d="M245.07,82.68 L245.07,82.68"/><path d="M256.99,80.44 L257.13,80.51"/><path d="M242.82,83.10 L242.82,83.10"/><path d="M245.28,82.69 L245.28,82.69"/><path d="M247.10,82.37 L247.10,82.37"/><path d="M245.28,82.69 L245.45,82.69"/><path d="M245.63,82.69 L245.63,82.69"/><path d="M242.82,83.10 L242.69,83.22"/><path d="M257.28,80.59 L257.28,80.59"/><path d="M245.83,82.68 L245.83,82.68"/><path d="M247.10,82.37 L246.83,82.52"/><path d="M246.04,82.67 L246.04,82.67"/><path d="M246.71,82.57 L246.71,82.57"/><path d="M246.25,82.66 L246.25,82.66"/><path d="M241.03,83.33 L241.28,83.56"/><path d="M246.25,82.66 L246.71,82.57"/><path d="M242.54,83.34 L242.54,83.34"/><path d="M241.35,83.59 L241.35,83.59"/><path d="M257.45,80.70 L257.45,80.70"/><path d="M242.54,83.34 L242.39,83.44"/><path d="M241.35,83.59 L241.41,83.61"/><path d="M242.22,83.51 L242.22,83.51"/><path d="M241.59,83.64 L241.59,83.64"/><path d="M242.22,83.51 L242.08,83.57"/><path d="M241.93,83.61 L241.93,83.61"/><path d="M241.59,83.64 L241.93,83.61"/><path d="M257.45,80.70 L257.99,81.10"/><path d="M258.11,81.15 L258.11,81.15"/><path d="M258.11,81.15 L258.42,81.27"/><path d="M258.59,81.34 L258.59,81.34"/><path d="M258.59,81.34 L258.97,81.55"/><path d="M259.11,81.68 L259.11,81.68"/><path d="M259.11,81.68 L259.32,81.93"/><path d="M259.41,82.04 L259.41,82.04"/><path d="M259.41,82.04 L259.64,82.27"/><path d="M259.78,82.39 L259.78,82.39"/><path d="M259.94,82.50 L259.94,82.50"/><path d="M259.94,82.50 L260.28,82.75"/><path d="M260.40,82.84 L260.40,82.84"/><path d="M277.83,79.82 L277.98,79.81"/><path d="M277.71,79.86 L277.71,79.86"/><path d="M278.16,79.81 L278.16,79.81"/><path d="M277.60,79.91 L277.60,79.91"/><path d="M260.40,82.84 L260.61,83.01"/><path d="M278.16,79.81 L278.29,79.81"/><path d="M278.43,79.81 L278.43,79.81"/><path d="M278.59,79.81 L278.59,79.81"/><path d="M278.59,79.81 L278.81,79.84"/><path d="M277.60,79.91 L277.27,80.12"/><path d="M260.79,83.14 L260.79,83.14"/><path d="M278.98,79.87 L278.98,79.87"/><path d="M277.13,80.22 L277.13,80.22"/><path d="M278.98,79.87 L279.11,79.91"/><path d="M279.22,79.95 L279.22,79.95"/><path d="M277.13,80.22 L276.84,80.40"/><path d="M279.22,79.95 L279.30,80.00"/><path d="M276.69,80.47 L276.69,80.47"/><path d="M260.79,83.14 L261.19,83.32"/><path d="M276.54,80.55 L276.54,80.55"/><path d="M271.96,81.38 L271.96,81.38"/><path d="M272.37,81.32 L272.05,81.35"/><path d="M271.88,81.41 L271.88,81.41"/><path d="M261.28,83.34 L261.28,83.34"/><path d="M279.37,80.07 L279.37,80.07"/><path d="M276.54,80.55 L276.28,80.67"/><path d="M272.56,81.35 L272.56,81.35"/><path d="M261.41,83.37 L261.41,83.37"/><path d="M276.22,80.70 L276.22,80.70"/><path d="M276.14,80.74 L276.14,80.74"/><path d="M272.74,81.37 L272.74,81.37"/><path d="M271.88,81.41 L271.43,81.62"/><path d="M271.32,81.65 L271.32,81.65"/><path d="M261.41,83.37 L261.63,83.41"/><path d="M270.94,81.73 L270.94,81.73"/><path d="M270.94,81.73 L271.32,81.65"/><path d="M276.14,80.74 L275.85,80.86"/><path d="M275.73,80.91 L275.73,80.91"/><path d="M270.73,81.76 L269.54,82.04"/><path d="M261.83,83.44 L261.83,83.44"/><path d="M272.74,81.37 L273.09,81.41"/><path d="M279.37,80.07 L279.49,80.27"/><path d="M269.42,82.09 L269.42,82.09"/><path d="M261.99,83.45 L261.99,83.45"/><path d="M275.73,80.91 L275.40,81.02"/><path d="M273.25,81.41 L273.25,81.41"/><path d="M275.23,81.07 L275.23,81.07"/><path d="M275.06,81.11 L275.06,81.11"/><path d="M275.06,81.11 L274.89,81.15"/><path d="M274.71,81.18 L274.71,81.18"/><path d="M261.99,83.45 L262.15,83.46"/><path d="M274.71,81.18 L274.52,81.22"/><path d="M274.33,81.26 L274.33,81.26"/><path d="M273.25,81.41 L274.33,81.26"/><path d="M262.31,83.48 L262.31,83.48"/><path d="M262.31,83.48 L262.45,83.48"/><path d="M269.42,82.09 L268.98,82.32"/><path d="M262.59,83.49 L262.59,83.49"/><path d="M279.53,80.43 L279.53,80.43"/><path d="M268.85,82.39 L268.85,82.39"/><path d="M262.59,83.49 L262.72,83.50"/><path d="M262.84,83.51 L262.84,83.51"/><path d="M262.84,83.51 L263.02,83.52"/><path d="M263.17,83.54 L263.17,83.54"/><path d="M279.55,80.60 L279.55,80.60"/><path d="M263.30,83.57 L263.30,83.57"/><path d="M268.85,82.39 L268.40,82.70"/><path d="M263.30,83.57 L263.69,83.63"/><path d="M268.24,82.81 L268.24,82.81"/><path d="M263.81,83.65 L263.81,83.65"/><path d="M263.81,83.65 L264.16,83.66"/><path d="M268.24,82.81 L267.98,82.99"/><path d="M264.31,83.65 L264.31,83.65"/><path d="M264.51,83.63 L264.51,83.63"/><path d="M264.51,83.63 L264.71,83.60"/><path d="M279.55,80.60 L279.58,80.91"/><path d="M264.91,83.57 L264.91,83.57"/><path d="M265.04,83.56 L265.04,83.56"/><path d="M265.04,83.56 L265.16,83.55"/><path d="M265.29,83.54 L265.29,83.54"/><path d="M267.78,83.10 L267.78,83.10"/><path d="M279.60,80.97 L279.60,80.97"/><path d="M265.29,83.54 L265.47,83.54"/><path d="M265.63,83.54 L265.63,83.54"/><path d="M267.57,83.20 L267.57,83.20"/><path d="M265.79,83.54 L265.79,83.54"/><path d="M267.57,83.20 L267.38,83.27"/><path d="M267.23,83.31 L267.23,83.31"/><path d="M265.79,83.54 L265.95,83.55"/><path d="M267.07,83.36 L267.07,83.36"/><path d="M266.16,83.54 L266.16,83.54"/><path d="M267.07,83.36 L266.73,83.44"/><path d="M266.58,83.48 L266.58,83.48"/><path d="M266.34,83.52 L266.34,83.52"/><path d="M266.58,83.48 L266.34,83.52"/><path d="M279.64,81.13 L279.64,81.13"/><path d="M279.64,81.13 L279.70,81.29"/><path d="M279.78,81.45 L279.78,81.45"/><path d="M279.88,81.60 L279.88,81.60"/><path d="M280.00,81.79 L280.00,81.79"/><path d="M280.00,81.79 L280.15,81.97"/><path d="M280.25,82.07 L280.25,82.07"/><path d="M280.25,82.07 L280.34,82.17"/><path d="M280.47,82.29 L280.47,82.29"/><path d="M280.57,82.37 L280.57,82.37"/><path d="M280.57,82.37 L280.86,82.50"/><path d="M281.00,82.52 L281.00,82.52"/><path d="M281.19,82.54 L281.19,82.54"/><path d="M281.19,82.54 L281.42,82.54"/><path d="M281.64,82.55 L281.64,82.55"/><path d="M281.65,82.55 L281.65,82.55"/><path d="M281.65,82.55 L282.09,82.55"/><path d="M282.29,82.55 L282.29,82.55"/><path d="M282.50,82.55 L282.50,82.55"/><path d="M282.73,82.56 L282.73,82.56"/><path d="M282.96,82.56 L282.96,82.56"/><path d="M282.96,82.56 L283.09,82.57"/><path d="M283.19,82.59 L283.19,82.59"/><path d="M283.19,82.59 L283.45,82.65"/><path d="M283.54,82.70 L283.54,82.70"/><path d="M283.64,82.77 L283.64,82.77"/><path d="M283.72,82.84 L283.72,82.84"/><path d="M283.72,82.84 L283.78,82.91"/><path d="M283.93,83.08 L283.93,83.08"/><path d="M283.93,83.08 L284.03,83.19"/><path d="M284.14,83.32 L284.14,83.32"/><path d="M284.25,83.41 L284.25,83.41"/><path d="M284.25,83.41 L284.36,83.51"/><path d="M216.87,66.89 L214.98,66.61 L210.85,67.79 L207.01,66.13 L205.37,66.95 L201.13,66.99 L199.65,68.62 L197.41,69.20 L192.95,66.76 L192.22,64.23 L194.03,62.45 L194.38,60.47 L196.26,58.13 L194.61,55.80 L197.75,54.39 L196.38,51.02 L198.11,45.23 L197.59,43.16 L196.61,42.84 L190.59,45.18 L189.13,45.25 L188.10,44.55 L189.62,39.35 L189.84,36.10 L192.19,34.47 L191.25,32.22 L188.08,30.84 L187.50,28.73 L186.82,28.36 L180.40,30.67 L179.59,31.95 L177.41,32.86 L176.77,35.30 L175.36,35.89 L174.17,31.21 L175.49,24.10 L172.70,22.12 L169.75,23.46 L167.81,23.48 L166.29,25.55 L160.88,20.00 L159.25,22.31 L159.16,23.50 L160.04,28.06 L162.55,30.77 L163.19,33.87 L162.71,38.20 L161.07,41.08 L160.52,44.92 L158.20,48.58 L151.39,48.60 L149.41,49.77 L148.55,49.53 L146.44,45.32 L145.63,41.28 L142.26,41.23 L140.13,37.59 L138.70,33.81 L138.22,29.94 L138.14,34.07 L140.55,46.45 L142.03,50.20 L142.26,53.80 L145.04,61.20 L148.83,64.99 L148.69,68.87 L142.82,69.79 L141.88,70.56 L143.54,75.98 L144.55,83.28 L142.18,85.89 L140.93,86.31 L140.25,89.01 L138.90,89.07 L135.31,90.99 L135.05,89.86 L139.06,86.57 L137.97,86.75 L137.24,88.01 L135.50,87.98 L133.29,89.47 L134.94,86.50 L136.74,86.58 L134.58,85.29 L131.47,88.42 L129.56,88.82 L125.35,87.46 L111.16,87.58 L109.17,86.94 L112.47,86.36 L109.74,85.91 L107.22,86.33 L102.03,88.82 L99.42,87.27 L92.82,86.68 L88.31,85.35 L85.10,85.77 L84.33,86.23 L84.80,86.90 L83.56,89.98 L76.83,94.60 L78.17,100.47 L76.51,103.58 L76.03,109.96 L75.44,111.00 L72.33,112.32 L69.72,115.86 L67.71,116.51 L66.35,115.24 L65.87,111.64 L63.35,109.99 L60.61,112.51 L59.19,114.88 L57.40,115.74 L56.17,122.29 L53.92,124.54 L54.74,128.60 L54.40,130.10 L51.18,132.39 L57.43,132.75 L56.86,130.30 L57.54,127.99 L61.32,123.16 L61.87,123.55 L62.97,129.97 L63.93,131.08 L70.67,125.68 L72.25,125.91 L68.27,131.92 L67.48,135.81 L65.03,140.13 L64.16,143.01 L64.36,144.59 L60.68,145.27 L57.85,147.12 L51.82,152.85 L50.43,155.17 L46.72,157.87 L46.64,163.99 L42.03,172.15 L31.87,179.46 L25.02,194.83 L24.39,201.95 L20.00,210.16 L23.09,209.58 L24.17,207.31 L25.29,206.80 L24.78,209.48 L26.20,208.38 L25.63,209.74 L27.84,209.40 L31.52,211.78 L29.32,213.24 L29.91,215.03 L30.85,216.52 L34.40,218.25 L36.75,223.31 L40.82,227.97 L37.53,228.46 L36.70,230.67 L32.22,235.98 L32.41,238.22 L32.86,237.05 L35.29,235.05 L40.54,233.05 L37.18,236.46 L37.84,237.67 L38.18,236.64 L40.65,236.10 L39.42,237.33 L39.11,241.64 L40.25,244.23 L41.35,239.73 L47.49,237.94 L45.58,239.77 L47.22,240.19 L47.54,241.09 L44.17,252.72 L44.53,259.41 L45.48,260.79 L47.65,259.61 L50.07,259.77 L52.54,262.30 L54.68,268.01 L52.73,273.27 L52.79,275.21 L54.10,276.41 L55.71,274.95 L57.42,274.53 L60.56,274.28 L61.39,274.79 L62.92,278.56 L62.40,283.64 L63.05,284.82 L65.43,284.80 L69.37,280.34 L73.19,278.64 L83.93,275.91 L86.15,277.23 L88.09,276.80 L85.03,272.87 L85.61,269.59 L85.03,267.01 L81.92,266.15 L79.07,267.68 L75.38,268.62 L67.65,268.14 L64.70,264.56 L66.00,262.71 L74.85,264.66 L77.80,261.67 L81.03,260.36 L83.82,260.47 L86.92,261.60 L86.45,260.37 L87.43,258.12 L88.48,260.81 L89.05,260.36 L89.66,260.86 L89.68,259.77 L91.29,262.94 L98.80,262.05 L107.98,264.21 L112.52,263.40 L117.60,266.92 L119.07,267.19 L120.18,266.54 L122.41,268.07 L127.47,267.67 L131.27,265.31 L135.88,263.68 L142.34,264.12 L146.28,266.25 L147.91,266.22 L150.35,264.94 L154.62,263.98 L155.81,261.09 L159.66,258.39 L160.46,259.82 L163.72,262.12 L167.62,262.85 L169.77,264.37 L172.13,264.69 L174.29,265.86 L181.26,271.43 L183.08,274.95 L183.31,279.94 L188.58,286.56 L191.36,288.94 L194.95,290.44 L195.61,291.33 L205.52,295.25 L210.48,296.35 L212.78,296.43 L216.13,294.13 L218.65,293.84 L226.20,299.20 L230.18,291.64 L232.70,289.40 L233.29,287.57 L237.99,283.93 L238.07,280.42 L237.20,280.11 L237.34,281.06 L236.53,281.79 L236.72,280.67 L234.86,277.33 L237.07,277.64 L238.32,274.57 L239.39,276.17 L242.29,276.52 L245.11,273.98 L248.51,275.37 L249.76,274.94 L249.92,273.44 L249.06,272.68 L250.74,265.63 L249.11,264.41 L250.28,263.78 L251.59,264.28 L252.68,262.96 L249.64,258.92 L248.13,258.81 L247.44,257.61 L250.35,257.41 L251.42,256.00 L253.14,255.72 L254.35,254.05 L255.35,249.48 L256.91,250.26 L257.81,252.67 L259.02,250.84 L259.07,249.15 L261.37,247.24 L258.65,248.49 L257.21,248.26 L255.63,246.93 L257.56,247.78 L259.22,247.25 L265.32,240.58 L265.97,238.36 L267.25,237.21 L267.23,235.40 L269.38,232.04 L272.09,230.27 L273.16,228.23 L276.31,228.68 L275.31,224.99 L277.14,220.78 L279.63,220.45 L282.34,218.72 L279.17,219.60 L277.55,218.30 L278.40,219.03 L279.48,218.88 L283.16,216.57 L285.11,218.90 L288.47,215.58 L289.93,215.58 L290.31,216.98 L291.23,217.52 L292.78,216.93 L291.46,216.49 L291.85,213.97 L288.29,212.34 L286.97,208.80 L287.54,208.00 L290.79,206.86 L292.15,203.66 L294.47,201.93 L292.41,199.82 L285.74,185.26 L272.65,173.20 L257.62,163.15 L248.39,154.47 L242.47,152.70 L242.47,151.98 L233.20,142.72 L229.51,141.75 L233.27,136.84 L235.21,136.38 L237.89,127.30 L239.77,123.75 L241.75,121.91 L240.98,119.32 L241.75,116.56 L241.86,119.59 L243.39,120.37 L244.18,122.03 L243.96,123.58 L242.97,124.69 L245.66,122.78 L245.68,116.38 L248.84,122.80 L249.59,123.22 L252.30,120.23 L253.15,117.02 L258.86,119.91 L263.39,119.71 L264.23,119.08 L263.44,118.13 L264.81,115.08 L263.64,111.02 L263.99,108.54 L266.51,105.83 L272.93,108.45 L274.40,108.28 L275.61,103.61 L277.93,101.04 L277.80,98.96 L282.00,95.54 L283.66,91.92 L285.69,93.08 L286.90,96.34 L286.71,99.37 L288.30,102.88 L287.60,98.89 L288.64,96.19 L287.81,90.82 L286.37,90.44 L282.81,85.11 L284.36,83.51 L285.70,84.05 L289.53,81.61 L295.94,80.15 L297.90,78.35 L297.30,81.17 L299.77,93.27 L304.68,96.73 L304.64,97.68 L303.18,97.89 L307.50,103.27 L309.07,103.40 L310.94,99.94 L311.84,102.15 L313.29,102.25 L315.57,95.94 L316.56,98.38 L320.00,102.32 L323.41,104.34 L322.37,106.49 L319.68,108.13 L321.38,108.24 L327.61,105.79 L330.02,108.49 L329.90,112.86 L330.57,114.78 L329.82,116.43 L328.93,115.22 L328.85,116.91 L329.74,121.21 L332.12,123.58 L332.97,125.38 L331.88,125.46 L329.77,128.50 L326.97,130.05 L326.59,132.39 L327.79,133.99 L327.05,136.18 L329.22,135.63 L330.15,140.08 L331.20,137.98 L332.24,137.61 L333.97,139.10 L338.71,139.52 L339.33,140.42 L339.52,143.52 L341.84,144.38 L345.55,143.85 L347.86,144.55 L352.40,142.94 L357.09,143.98 L356.27,147.53 L352.56,151.56 L357.51,155.51 L359.00,157.58 L354.81,163.21 L355.34,164.84 L357.95,165.63 L358.52,167.96 L355.43,167.48 L353.80,165.47 L351.32,165.54 L353.08,166.09 L353.81,168.51 L357.71,172.01 L359.81,170.73 L364.03,171.65 L364.68,170.32 L367.20,169.36 L365.84,170.73 L368.33,169.09 L366.70,171.52 L367.19,172.71 L366.79,173.98 L365.30,175.19 L371.44,172.68 L370.85,174.26 L371.76,175.52 L368.56,179.48 L373.51,181.47 L380.08,185.99 L378.36,187.31 L375.52,187.73 L378.15,192.29 L373.93,193.34 L378.64,194.30 L389.41,194.99 L392.16,196.15 L396.02,196.56 L401.05,199.94 L402.87,198.27 L402.23,194.94 L403.08,190.77 L402.02,181.93 L402.77,175.03 L403.63,172.93 L407.39,168.66 L412.59,156.73 L414.92,149.70 L421.93,148.95 L428.31,147.06 L433.73,148.44 L434.26,147.19 L435.49,147.44 L442.32,142.86 L448.64,131.68 L451.65,132.10 L460.11,130.82 L466.38,126.77 L470.40,120.85 L474.99,121.63 L477.31,123.41 L477.46,124.68 L478.83,125.79 L482.00,126.85 L510.11,147.42 L516.69,147.44 L520.53,153.11 L522.72,165.91 L524.90,170.63 L528.67,173.28 L533.11,178.23 L537.13,185.78 L539.70,194.38 L540.35,200.58 L545.96,210.90 L547.85,218.58 L549.62,220.23 L549.19,222.33 L551.63,232.53 L555.03,237.12 L557.64,242.05 L559.68,250.07 L567.05,259.53 L570.60,262.61 L570.92,265.00 L570.05,269.23 L570.90,269.77 L572.38,269.01 L576.46,274.46 L578.27,273.02 L580.00,275.99 L577.69,277.22 L576.68,279.83 L574.57,282.66 L571.91,281.10 L572.75,277.84 L571.85,276.56 L562.57,282.85 L560.63,284.84 L558.98,285.03 L556.34,288.85 L560.10,291.31 L562.96,296.01 L565.24,293.48"/></g></svg>
