<?xml version="1.0" encoding="UTF-8"?>
<svg xmlns="http://www.w3.org/2000/svg" viewBox="0 0 512 326"><path d="M0 0 C4.29 2.42 7.44 5.12 10.66 8.83 C11.13 9.35 11.6 9.88 12.09 10.42 C15.83 14.65 19.37 19.02 22.91 23.42 C25.57 26.66 28.42 29.71 31.29 32.77 C36.56 38.41 41.5 44.2 46.29 50.27 C47.04 51.18 47.8 52.1 48.56 53.02 C52.85 58.34 56.27 63.78 59.16 69.98 C59.5 70.71 59.84 71.45 60.2 72.2 C63.7 79.89 66.45 87.77 69.02 95.81 C69.79 98.23 70.6 100.65 71.41 103.06 C77.63 122.04 77.63 122.04 73.72 130.14 C69.89 135.79 64.31 137.42 57.91 138.75 C55.56 139.19 53.21 139.61 50.85 140.02 C49.63 140.24 48.41 140.46 47.19 140.68 C44.22 141.22 41.25 141.75 38.29 142.27 C38.82 142.54 39.35 142.81 39.9 143.09 C42.37 144.35 44.83 145.62 47.29 146.89 C48.12 147.32 48.96 147.74 49.83 148.18 C65.67 156.41 65.67 156.41 68.29 164.27 C68.52 167.21 68.58 169.44 67.59 172.23 C67.29 174.27 67.29 174.27 68.44 175.91 C68.73 176.2 68.73 176.2 70.22 177.64 C85.14 193.75 91.03 216.22 90.53 237.68 C89.6 259.77 80.2 280.83 64.29 296.27 C45.96 313.05 22.61 321.25 -2.06 320.55 C-27.11 319.32 -47.99 306.31 -64.71 288.27 C-65.74 286.95 -66.75 285.62 -67.71 284.27 C-68.03 284.75 -68.34 285.23 -68.67 285.73 C-69.1 286.36 -69.52 286.99 -69.96 287.64 C-70.38 288.27 -70.8 288.89 -71.23 289.54 C-73.46 292.13 -75.63 293.14 -79.03 293.53 C-79.88 293.54 -80.73 293.55 -81.6 293.56 C-82.57 293.57 -83.54 293.58 -84.54 293.59 C-85.57 293.6 -86.61 293.6 -87.68 293.6 C-88.76 293.61 -89.83 293.61 -90.93 293.62 C-93.2 293.63 -95.47 293.64 -97.73 293.64 C-101.2 293.64 -104.67 293.68 -108.14 293.71 C-110.34 293.72 -112.54 293.72 -114.75 293.73 C-115.78 293.74 -116.82 293.76 -117.89 293.77 C-125.05 293.72 -125.05 293.72 -128.37 291.42 C-130.2 288.48 -130.21 286.68 -129.71 283.27 C-127.93 280.13 -127.19 279.42 -123.71 278.27 C-122.35 278.18 -120.98 278.15 -119.61 278.15 C-119.2 278.15 -119.2 278.15 -117.12 278.15 C-116.24 278.16 -115.36 278.16 -114.45 278.17 C-114 278.17 -114 278.17 -111.71 278.17 C-108.81 278.18 -105.92 278.19 -103.03 278.2 C-101.07 278.21 -99.1 278.21 -97.14 278.22 C-92.33 278.23 -87.52 278.24 -82.71 278.27 C-82.68 277.43 -82.64 276.6 -82.6 275.74 C-82.12 266.57 -80.62 257.85 -78.65 248.89 C-78.37 247.56 -78.08 246.22 -77.8 244.89 C-77.11 241.68 -76.42 238.47 -75.71 235.27 C-76.26 235.28 -76.8 235.29 -77.36 235.31 C-96.79 235.58 -114.49 229.72 -131.71 221.27 C-131.81 221.49 -131.81 221.49 -132.32 222.62 C-137.76 234.6 -142.94 243.29 -155.71 248.27 C-165.15 251.55 -174.45 250.95 -183.71 247.27 C-187.21 245.16 -190.39 242.8 -193.07 239.7 C-195.1 237.93 -196.07 237.88 -198.73 237.83 C-199.13 237.82 -199.13 237.82 -201.15 237.77 C-202.01 237.77 -202.87 237.76 -203.76 237.75 C-204.64 237.74 -205.52 237.72 -206.44 237.7 C-209.26 237.65 -212.08 237.61 -214.9 237.58 C-216.82 237.54 -218.73 237.51 -220.64 237.47 C-225.33 237.39 -230.02 237.32 -234.71 237.27 C-232.84 240.02 -230.97 242.77 -229.09 245.52 C-228.8 245.94 -228.8 245.94 -227.35 248.07 C-224.18 252.71 -220.98 257.32 -217.73 261.91 C-217.09 262.82 -216.45 263.72 -215.79 264.66 C-214.54 266.42 -213.29 268.18 -212.03 269.94 C-211.47 270.74 -210.9 271.54 -210.32 272.36 C-210.07 272.72 -210.07 272.72 -208.79 274.5 C-207.71 276.27 -207.71 276.27 -207.71 278.27 C-207.07 278.26 -206.43 278.26 -205.77 278.25 C-199.71 278.21 -193.64 278.18 -187.58 278.16 C-184.47 278.15 -181.35 278.14 -178.23 278.11 C-174.65 278.09 -171.06 278.08 -167.48 278.07 C-166.36 278.06 -165.25 278.05 -164.1 278.04 C-163.06 278.04 -162.01 278.04 -160.94 278.04 C-160.03 278.03 -159.11 278.03 -158.17 278.03 C-155.54 278.28 -153.94 278.87 -151.71 280.27 C-149.79 282.83 -149.7 284.1 -149.9 287.33 C-150.77 290.45 -151.17 291.37 -153.71 293.27 C-156.27 293.67 -156.27 293.67 -159.36 293.7 C-159.92 293.71 -160.49 293.72 -161.07 293.73 C-162.94 293.76 -164.8 293.77 -166.67 293.77 C-167.97 293.78 -169.27 293.79 -170.57 293.8 C-173.3 293.82 -176.03 293.82 -178.76 293.82 C-182.25 293.82 -185.73 293.86 -189.22 293.91 C-191.91 293.95 -194.6 293.95 -197.29 293.95 C-198.57 293.96 -199.86 293.97 -201.14 293.99 C-212.4 294.18 -212.4 294.18 -216.84 290.52 C-218.41 288.87 -218.41 288.87 -219.71 287.27 C-220.36 286.47 -221.01 285.68 -221.68 284.87 C-221.93 284.48 -221.93 284.48 -223.22 282.54 C-223.81 281.66 -224.4 280.78 -225.01 279.88 C-225.61 278.95 -226.22 278.03 -226.84 277.08 C-227.81 275.62 -228.79 274.16 -229.76 272.7 C-230.76 271.21 -231.75 269.72 -232.74 268.23 C-235.83 263.58 -238.99 258.99 -242.15 254.39 C-243.23 252.81 -244.32 251.23 -245.4 249.65 C-246.17 248.52 -246.94 247.39 -247.71 246.27 C-248.81 249.46 -249.84 252.65 -250.76 255.89 C-254.67 269.5 -260.21 280.64 -269.71 291.27 C-270.45 292.1 -271.19 292.93 -271.95 293.79 C-286.88 309.67 -308.14 319.54 -329.92 320.5 C-352.57 321.05 -371.78 314.99 -389.71 301.27 C-390.44 300.72 -391.17 300.18 -391.92 299.62 C-408.69 286.13 -418.74 265.16 -421.53 244.11 C-423.83 221.2 -418.14 198.47 -403.9 180.14 C-388.16 161.29 -368.22 149.73 -343.84 146.52 C-342.47 146.41 -341.09 146.33 -339.71 146.27 C-338.97 146.23 -338.22 146.19 -337.45 146.14 C-314.4 145.51 -292.35 153.95 -275.53 169.58 C-273.56 171.45 -271.63 173.35 -269.71 175.27 C-268.39 176.59 -267.07 177.91 -265.71 179.27 C-256.47 174.98 -247.23 170.69 -237.71 166.27 C-238.04 165.44 -238.04 165.44 -239.71 161.27 C-240.38 159.6 -241.05 157.93 -241.71 156.27 C-242.43 156.33 -243.14 156.4 -243.88 156.47 C-251.52 157.16 -259.11 157.51 -266.78 157.58 C-267.87 157.61 -268.96 157.64 -270.09 157.67 C-287.22 157.8 -298.12 148.66 -310.48 138.03 C-314.28 134.77 -318.15 131.61 -322.03 128.45 C-324.34 126.57 -326.64 124.69 -328.94 122.79 C-330.32 121.66 -331.71 120.54 -333.11 119.41 C-334.76 118.05 -336.38 116.64 -337.95 115.18 C-343.35 110.35 -347.21 109.73 -354.36 109.56 C-363.07 108.8 -371 104.47 -376.75 97.96 C-377.42 97.11 -378.09 96.26 -378.78 95.39 C-382.35 90.91 -386.03 86.54 -389.78 82.2 C-394.56 76.66 -399.18 71.01 -403.71 65.27 C-404.46 64.34 -405.2 63.42 -405.95 62.5 C-406.31 62.04 -406.68 61.59 -407.06 61.11 C-408.09 59.84 -409.12 58.57 -410.15 57.3 C-413.52 52.93 -413.29 48.62 -412.71 43.27 C-411.38 39.35 -409.55 36.91 -406.28 34.39 C-395.36 29.6 -378.62 31.35 -367.55 34.97 C-361.29 37.7 -356.62 42.64 -351.71 47.27 C-350.02 48.8 -348.3 50.31 -346.59 51.83 C-345.84 52.49 -345.1 53.15 -344.33 53.83 C-343.8 54.31 -343.26 54.78 -342.71 55.27 C-342.14 54.98 -341.57 54.69 -340.98 54.39 C-333.13 50.8 -325.47 49.78 -317.02 51.96 C-311.77 53.92 -307.14 56.76 -302.38 59.7 C-284.11 70.45 -263.2 74.82 -242.71 79.27 C-242.43 78.66 -242.14 78.04 -241.84 77.42 C-240.39 74.65 -238.51 72.63 -236.4 70.33 C-236 69.88 -235.59 69.44 -235.17 68.98 C-232.43 65.99 -229.62 63.1 -226.71 60.27 C-226.26 59.76 -225.81 59.25 -225.35 58.73 C-214.55 46.97 -198.37 38.9 -182.4 37.96 C-166.52 37.42 -151.97 40.35 -136.71 44.27 C-136.24 44.39 -136.24 44.39 -133.86 44.99 C-117.76 49.21 -102.51 55.69 -87.71 63.27 C-87.96 63.01 -87.96 63.01 -89.18 61.69 C-94.81 55.47 -97.23 51.35 -97.03 42.83 C-96.37 37.41 -93.97 33.13 -89.96 29.45 C-84.43 25.37 -78.56 23.34 -71.66 24.32 C-65.46 26.31 -60.19 30.17 -54.86 33.81 C-52.7 35.27 -50.53 36.69 -48.34 38.09 C-32.5 48.42 -32.5 48.42 -30.16 56.09 C-29.84 57.77 -29.84 57.77 -29.71 60.27 C-29.05 60.27 -28.39 60.27 -27.71 60.27 C-28 49.33 -28.73 38.24 -33.71 28.27 C-34.83 17.06 -34.83 17.06 -31.23 12.66 C-23.77 5.79 -10.73 -4.6 0 0 Z M-6.71 14.27 C-7.37 14.93 -8.03 15.59 -8.71 16.27 C6.83 39.77 6.83 39.77 12.91 48.45 C13.27 48.99 13.64 49.52 14.01 50.06 C16.92 54.15 20.53 58.11 25.22 60.08 C28.26 60.35 31.24 60.32 34.29 60.27 C30.59 55.03 26.52 50.24 22.17 45.54 C19.27 42.39 16.53 39.17 13.85 35.83 C10.08 31.15 6.11 26.71 2 22.32 C0.06 20.24 -1.74 18.23 -3.41 15.92 C-3.84 15.37 -4.27 14.83 -4.71 14.27 C-5.37 14.27 -6.03 14.27 -6.71 14.27 Z M-14.71 34.27 C-14.55 35.38 -14.38 36.49 -14.21 37.64 C-12.45 54.38 -12.95 70.37 -23.71 84.27 C-34.16 95.57 -48.2 100.99 -61.96 107.2 C-64.97 108.57 -67.98 109.93 -70.98 111.29 C-71.71 111.62 -72.44 111.95 -73.19 112.29 C-80.39 115.56 -87.56 118.9 -94.71 122.27 C-94.71 122.93 -94.71 123.59 -94.71 124.27 C-93.68 124.59 -92.65 124.92 -91.59 125.26 C-70.29 132.28 -53.07 142.97 -37.71 159.27 C-37.3 158.93 -36.88 158.58 -36.46 158.23 C-17.88 143.62 4.77 135.54 27.29 129.27 C27.12 128.65 26.96 128.03 26.79 127.39 C24.93 115.77 24.93 115.77 27.85 110.95 C32.73 104.92 38.99 102.32 46.29 100.27 C46.64 100.16 46.64 100.16 48.41 99.64 C50.03 99.17 51.66 98.72 53.29 98.27 C48.6 79.58 48.6 79.58 45.29 76.27 C43.63 76.03 41.96 75.85 40.29 75.69 C39.25 75.58 38.22 75.47 37.15 75.36 C34.99 75.13 32.82 74.92 30.65 74.72 C22.15 73.79 13.45 71.55 7.54 64.88 C1.87 57.6 -3.28 50.03 -8.3 42.31 C-10.24 39.35 -12.04 36.62 -14.71 34.27 Z M-80.03 40.89 C-82.04 43.72 -82.15 44.87 -81.71 48.27 C-80.27 49.93 -80.27 49.93 -78.15 51.45 C-77.34 52.04 -76.54 52.63 -75.7 53.24 C-73.45 54.79 -71.17 56.28 -68.88 57.76 C-68.22 58.2 -67.55 58.63 -66.86 59.08 C-65.54 59.94 -64.2 60.79 -62.86 61.63 C-56.3 65.84 -54.31 70.86 -52.03 78.08 C-51.8 78.77 -51.58 79.46 -51.35 80.18 C-50.8 81.87 -50.25 83.57 -49.71 85.27 C-45.55 83.8 -42.31 81.77 -38.71 79.27 C-39.98 69.55 -42.39 60.51 -50.27 54.19 C-53.22 52.01 -56.24 49.98 -59.34 48.02 C-59.95 47.63 -60.56 47.24 -61.19 46.84 C-75.63 37.8 -75.63 37.8 -80.03 40.89 Z M-397.71 47.27 C-396.05 51.22 -393.44 54.13 -390.65 57.33 C-389.65 58.5 -388.65 59.66 -387.65 60.83 C-387.15 61.41 -386.65 61.99 -386.14 62.59 C-384.13 64.95 -382.17 67.36 -380.21 69.77 C-378.72 71.6 -377.22 73.43 -375.71 75.27 C-375.27 75.81 -374.82 76.36 -374.35 76.92 C-372.92 78.67 -371.47 80.41 -370.03 82.14 C-369.59 82.68 -369.15 83.21 -368.7 83.76 C-363.62 89.82 -359.1 94.09 -351.07 95.32 C-343.61 95.19 -335.4 92.61 -328.71 89.27 C-330.3 84.97 -333.39 82.75 -336.84 79.95 C-338.03 78.97 -339.22 77.98 -340.41 77 C-340.98 76.52 -341.55 76.05 -342.14 75.56 C-347.52 71.12 -352.65 66.42 -357.78 61.7 C-359.75 59.89 -361.73 58.08 -363.71 56.27 C-364.07 55.94 -364.07 55.94 -365.86 54.3 C-373.15 47.8 -380.6 47.09 -390.09 47.2 C-390.46 47.21 -390.46 47.21 -392.32 47.22 C-394.12 47.23 -395.92 47.25 -397.71 47.27 Z M-217.71 72.27 C-218.13 72.67 -218.55 73.07 -218.98 73.48 C-227.77 81.99 -227.77 81.99 -229.71 85.27 C-229.29 88.45 -228.22 90.15 -226.02 92.44 C-225.47 93.02 -224.92 93.59 -224.36 94.19 C-223.78 94.79 -223.19 95.39 -222.59 96.02 C-221.39 97.28 -220.19 98.54 -218.99 99.81 C-218.42 100.41 -217.84 101.01 -217.25 101.63 C-215.5 103.49 -213.81 105.39 -212.15 107.33 C-209.09 110.88 -205.91 114.32 -202.71 117.77 C-191.65 129.71 -191.65 129.71 -187.4 135.27 C-187.12 135.6 -187.12 135.6 -185.71 137.27 C-185.05 137.27 -184.39 137.27 -183.71 137.27 C-182.38 135.29 -182.38 135.29 -180.9 132.64 C-172.66 118.61 -160.07 112.06 -145.9 104.95 C-144.43 104.21 -142.97 103.46 -141.5 102.72 C-137.9 100.89 -134.29 99.07 -130.68 97.26 C-128.34 96.08 -126 94.89 -123.65 93.7 C-113.76 88.7 -103.84 83.79 -93.71 79.27 C-103.44 67.54 -124.47 62.8 -138.71 59.27 C-139.81 58.99 -140.9 58.72 -142.03 58.44 C-171.49 51.16 -194.35 49.72 -217.71 72.27 Z M-84.71 65.27 C-84.38 65.93 -84.05 66.59 -83.71 67.27 C-83.05 66.94 -82.39 66.61 -81.71 66.27 C-82.7 65.94 -83.69 65.61 -84.71 65.27 Z M-329.71 66.27 C-327.21 69.56 -324.83 72.17 -321.53 74.7 C-316.84 78.36 -312.24 82.1 -307.65 85.89 C-306.93 86.49 -306.21 87.08 -305.47 87.69 C-301.69 90.8 -297.92 93.92 -294.16 97.04 C-290.61 99.96 -287.06 102.88 -283.51 105.79 C-282.4 106.7 -281.3 107.61 -280.2 108.52 C-272.11 115.21 -266.2 116.85 -255.71 116.27 C-251.28 115.62 -246.91 114.72 -242.53 113.77 C-241.37 113.52 -240.22 113.28 -239.06 113.04 C-236.28 112.46 -233.5 111.87 -230.71 111.27 C-230.71 106.24 -233.74 103.29 -236.93 99.6 C-245.41 91.22 -257.79 90.46 -269.03 88.39 C-284.93 85.41 -299.98 78.61 -313.87 70.43 C-319.54 67.12 -323.11 65.52 -329.71 66.27 Z M-87.43 91.89 C-87.85 92.09 -87.85 92.09 -90 93.09 C-92.91 94.46 -95.81 95.86 -98.71 97.27 C-99.81 97.79 -100.9 98.32 -101.99 98.84 C-109.22 102.31 -116.42 105.85 -123.6 109.41 C-126.11 110.66 -128.62 111.89 -131.13 113.12 C-134.24 114.63 -137.33 116.16 -140.42 117.7 C-141.58 118.27 -142.74 118.84 -143.9 119.4 C-154.74 124.66 -165.3 131.86 -170.75 143.04 C-171.08 143.72 -171.42 144.4 -171.76 145.1 C-171.93 145.45 -171.93 145.45 -172.78 147.2 C-173.12 147.89 -173.45 148.58 -173.8 149.29 C-174.47 150.65 -175.13 152 -175.78 153.36 C-176.65 155.13 -177.55 156.89 -178.46 158.64 C-179.71 161.27 -179.71 161.27 -179.71 163.27 C-174.43 163.27 -169.15 163.27 -163.71 163.27 C-163.23 162.23 -162.75 161.19 -162.25 160.12 C-154.78 144.44 -145.85 133.05 -130.21 124.83 C-129.75 124.58 -129.75 124.58 -127.4 123.32 C-109.02 113.57 -90.43 104 -71.29 95.83 C-70.55 95.51 -69.82 95.19 -69.06 94.87 C-68.43 94.6 -67.8 94.34 -67.16 94.06 C-65.71 93.27 -65.71 93.27 -64.71 91.27 C-72.83 86.4 -79.22 87.92 -87.43 91.89 Z M-321.96 102.27 C-322.86 102.64 -323.75 103.01 -324.67 103.39 C-325.01 103.53 -325.01 103.53 -326.71 104.27 C-322.83 108.26 -318.75 111.94 -314.53 115.58 C-313.86 116.15 -313.2 116.72 -312.52 117.32 C-308.1 121.12 -303.63 124.83 -299.04 128.43 C-297.41 129.72 -295.79 131.04 -294.2 132.39 C-293.78 132.74 -293.78 132.74 -291.65 134.52 C-290.92 135.14 -290.19 135.76 -289.43 136.41 C-281.43 141.89 -274.76 142.82 -265.15 142.52 C-264.6 142.51 -264.6 142.51 -261.81 142.46 C-259.11 142.41 -256.41 142.35 -253.71 142.27 C-253.55 141.94 -253.55 141.94 -252.71 140.27 C-254.24 136.73 -255.91 133.93 -258.71 131.27 C-261.07 130.63 -262.96 130.27 -265.34 130.08 C-278.81 128.93 -287.34 121.48 -297.03 112.76 C-299.59 110.49 -302.24 108.31 -304.9 106.14 C-305.76 105.44 -306.62 104.73 -307.51 104.01 C-307.87 103.72 -307.87 103.72 -309.71 102.27 C-310.23 101.86 -310.74 101.45 -311.27 101.02 C-315.01 99.06 -318.33 100.74 -321.96 102.27 Z M48.16 114.64 C47.31 114.9 46.46 115.15 45.59 115.41 C43.55 116.17 42.02 116.96 40.29 118.27 C41.29 121.27 41.29 121.27 44.22 123.02 C48.89 124.88 53.45 124.22 58.29 123.27 C58.95 122.94 59.61 122.61 60.29 122.27 C60.14 121.15 60 120.04 59.85 118.89 C59.81 118.58 59.81 118.58 59.6 116.99 C59.29 115.27 59.29 115.27 58.29 113.27 C54.62 113.12 51.66 113.56 48.16 114.64 Z M-224.94 124.36 C-225.46 124.47 -225.46 124.47 -228.07 125.04 C-229.15 125.28 -230.23 125.52 -231.34 125.77 C-231.88 125.88 -231.88 125.88 -234.64 126.49 C-237.33 127.08 -240.02 127.67 -242.71 128.27 C-239.73 133.81 -236.6 139.12 -232.96 144.27 C-229.35 149.42 -225.81 154.61 -222.32 159.86 C-221.17 161.59 -220.02 163.31 -218.86 165.04 C-218.1 166.19 -217.34 167.34 -216.58 168.49 C-215.51 170.12 -214.43 171.74 -213.34 173.36 C-213.03 173.83 -213.03 173.83 -211.44 176.22 C-210.87 176.9 -210.3 177.57 -209.71 178.27 C-206.71 178.27 -206.71 178.27 -205.17 177.08 C-200.99 172.47 -198.03 167.53 -195.21 162.02 C-194.85 161.32 -194.49 160.62 -194.12 159.9 C-193.95 159.57 -193.95 159.57 -193.12 157.88 C-192.83 157.28 -192.53 156.68 -192.22 156.06 C-191.56 153.71 -191.83 152.53 -192.71 150.27 C-194.09 148.47 -194.09 148.47 -195.85 146.66 C-196.49 145.98 -197.13 145.31 -197.79 144.62 C-198.47 143.92 -199.14 143.23 -199.84 142.52 C-201.16 141.15 -202.47 139.78 -203.78 138.41 C-204.44 137.73 -205.09 137.05 -205.76 136.35 C-208.3 133.64 -210.74 130.84 -213.17 128.02 C-216.06 124.74 -216.06 124.74 -217.71 123.27 C-220.24 123.27 -222.47 123.82 -224.94 124.36 Z M-139.71 149.27 C-146.56 158.31 -152.35 169.42 -152.26 181.03 C-151.37 184.67 -148.92 185.86 -145.88 187.8 C-141.57 190.71 -138.59 194.8 -135.95 199.23 C-133.65 202.71 -130.85 204.4 -127.21 206.33 C-126.6 206.67 -125.98 207.01 -125.34 207.35 C-108.1 216.61 -91.15 220.53 -71.71 220.27 C-69.29 214.94 -67.03 209.58 -64.92 204.12 C-56.16 181.46 -56.16 181.46 -49.92 174.17 C-48.71 172.27 -48.71 172.27 -48.79 169.78 C-53.31 157.45 -72.29 148.29 -83.47 143.06 C-104.21 133.94 -123.18 131.16 -139.71 149.27 Z M2.29 152.27 C1.05 155.97 1.69 157.17 2.94 160.81 C3.3 161.88 3.67 162.95 4.04 164.06 C4.43 165.19 4.83 166.32 5.22 167.45 C5.61 168.6 6 169.74 6.39 170.88 C7.35 173.68 8.31 176.47 9.29 179.27 C17.97 177.78 26.1 174.63 34.35 171.64 C35.8 171.12 37.25 170.6 38.71 170.08 C42.23 168.81 45.76 167.54 49.29 166.27 C35.86 155.33 19.1 152.71 2.29 152.27 Z M-389.87 186.57 C-403.27 202.29 -408.25 221.91 -406.71 242.27 C-404.59 258.84 -396.94 273.53 -384.97 285.05 C-383.89 286.1 -382.84 287.18 -381.8 288.28 C-369.9 299.96 -351.44 305.55 -335.09 305.7 C-314.4 305.37 -297.37 297.41 -282.4 283.39 C-275.25 275.9 -270.61 266.77 -266.71 257.27 C-266.47 256.67 -266.22 256.07 -265.96 255.45 C-264.57 251.74 -264.71 249.53 -264.71 245.27 C-267.52 245.43 -267.52 245.43 -281.71 246.27 C-282.25 247.87 -282.79 249.48 -283.34 251.14 C-287.28 261.95 -293.26 271.39 -302.84 277.89 C-303.12 278.08 -303.12 278.08 -304.54 279.06 C-317.13 287.4 -332 289.13 -346.76 286.97 C-360.4 284.08 -372.81 275.48 -380.53 263.95 C-388.56 250.57 -391.28 234.77 -388.03 219.41 C-383.9 205.07 -375.54 193.83 -362.71 186.27 C-348.31 179.15 -333.18 176.75 -317.56 181.22 C-310.91 183.66 -305.03 186.85 -299.9 191.77 C-298.25 193.25 -298.25 193.25 -296.71 194.27 C-293.97 193.96 -293.03 193.57 -290.71 192.27 C-288.92 191.39 -287.13 190.52 -285.34 189.64 C-283.8 188.85 -282.25 188.06 -280.71 187.27 C-285.08 177.19 -297.96 170.36 -307.76 166.45 C-315.21 163.74 -322.76 161.5 -330.71 161.27 C-331.37 161.22 -332.02 161.17 -332.69 161.11 C-354.72 160.08 -375.16 170.85 -389.87 186.57 Z M-13.71 160.27 C-15.2 161.26 -15.2 161.26 -22.71 166.27 C-20.52 174.56 -18.05 182.73 -15.41 190.89 C-15.2 191.51 -15 192.14 -14.79 192.78 C-13.73 196.07 -12.66 199.36 -11.59 202.66 C-10.71 205.36 -9.84 208.08 -8.97 210.79 C-7.91 214.09 -6.85 217.39 -5.77 220.69 C-5.36 221.94 -4.96 223.19 -4.56 224.44 C-4.01 226.18 -3.44 227.92 -2.87 229.66 C-2.55 230.65 -2.23 231.64 -1.9 232.66 C-0.57 235.59 0.78 237.26 3.29 239.27 C6.31 239.21 8.3 239.03 10.72 237.14 C12.21 232.17 9.77 226.12 8.18 221.34 C7.97 220.68 7.76 220.03 7.54 219.36 C6.85 217.22 6.15 215.09 5.45 212.96 C4.96 211.47 4.47 209.98 3.98 208.49 C2.97 205.38 1.95 202.27 0.92 199.17 C-0.39 195.18 -1.7 191.19 -3 187.19 C-4 184.12 -5.01 181.05 -6.02 177.98 C-6.5 176.51 -6.98 175.04 -7.46 173.57 C-8.13 171.51 -8.8 169.47 -9.48 167.42 C-9.68 166.81 -9.88 166.19 -10.08 165.56 C-11.49 161.38 -11.49 161.38 -13.71 160.27 Z M-196.73 188.38 C-204.61 197.96 -205.88 207.12 -204.71 219.27 C-204.38 220.26 -204.05 221.25 -203.71 222.27 C-203.28 222.28 -203.28 222.28 -201.08 222.34 C-193.43 222.72 -189.13 223.36 -183.28 228.54 C-178.27 232.85 -173.42 235.9 -166.54 235.55 C-160.19 234.55 -154.4 231.9 -150.52 226.65 C-147.08 220.86 -146.69 214.85 -147.71 208.27 C-150.04 202.38 -153.97 198.6 -159.29 195.28 C-162.57 193.21 -164.32 191.88 -165.71 188.27 C-166.13 185.47 -166.13 185.47 -166.34 182.52 C-166.41 181.53 -166.49 180.55 -166.57 179.53 C-166.62 178.78 -166.66 178.04 -166.71 177.27 C-178.32 176.51 -188.59 179.84 -196.73 188.38 Z M-236.02 181.75 C-236.76 182.11 -237.5 182.47 -238.27 182.85 C-239.87 183.64 -241.47 184.42 -243.07 185.21 C-247.32 187.31 -251.58 189.39 -255.84 191.47 C-256.69 191.89 -257.55 192.3 -258.42 192.73 C-265.44 196.15 -272.5 199.45 -279.59 202.7 C-291.34 208.09 -302.97 213.72 -314.59 219.39 C-315.45 219.81 -316.31 220.23 -317.2 220.66 C-331.8 227.8 -331.8 227.8 -338.71 231.27 C-338.71 232.26 -338.71 233.25 -338.71 234.27 C-330.06 233.97 -321.4 233.66 -312.75 233.34 C-311.41 233.29 -310.08 233.24 -308.74 233.19 C-301.01 232.91 -293.28 232.61 -285.55 232.27 C-282.26 232.12 -278.97 231.99 -275.69 231.87 C-272.42 231.75 -269.15 231.61 -265.88 231.46 C-264.66 231.4 -263.43 231.36 -262.21 231.32 C-252.74 231.02 -252.74 231.02 -250.21 229.15 C-249.2 227.82 -249.2 227.82 -247.71 225.27 C-244.52 223.08 -241.68 222.97 -237.86 222.85 C-236.74 222.81 -235.63 222.77 -234.48 222.73 C-233.31 222.7 -232.14 222.67 -230.96 222.64 C-229.78 222.6 -228.59 222.56 -227.41 222.52 C-224.51 222.43 -221.61 222.34 -218.71 222.27 C-218.73 221.71 -218.74 221.15 -218.75 220.57 C-218.79 217.99 -218.81 215.41 -218.84 212.83 C-218.86 211.95 -218.87 211.07 -218.89 210.17 C-218.92 205.69 -218.7 201.91 -217.41 197.61 C-216.52 194.03 -216.8 192.3 -218.64 189.11 C-219.55 187.78 -220.49 186.48 -221.46 185.2 C-221.93 184.53 -222.4 183.85 -222.89 183.16 C-225.37 179.67 -225.37 179.67 -226.71 178.27 C-230.12 178.27 -233.02 180.26 -236.02 181.75 Z M-35.71 178.27 C-49.62 197.37 -56.59 219.99 -62.21 242.7 C-62.48 243.76 -62.75 244.82 -63.03 245.92 C-65.51 256.37 -63.15 263.25 -57.71 272.27 C-55.25 275.8 -52.58 279.05 -49.71 282.27 C-49.41 282.61 -49.41 282.61 -47.88 284.38 C-35.93 297.31 -18.21 304.51 -0.85 305.52 C20.65 306.34 38.27 299.45 54.06 284.87 C67.68 271.83 74.92 253.6 75.57 234.87 C75.85 216.65 69.62 200.45 58.29 186.27 C57.89 185.76 57.5 185.26 57.1 184.74 C55.88 183.32 55.88 183.32 53.29 181.27 C50.37 181.33 50.37 181.33 47.29 182.27 C46.24 182.56 45.19 182.86 44.11 183.17 C43.07 183.51 42.04 183.85 40.97 184.2 C40.45 184.37 40.45 184.37 37.8 185.23 C35.29 186.27 35.29 186.27 34.29 188.27 C34.83 188.62 35.38 188.97 35.94 189.34 C44.74 195.56 52.95 205.48 55.29 216.27 C55.57 219.51 55.32 221.15 54.29 224.27 C49.87 225.29 47.26 225.55 43.29 223.27 C42.01 221.05 41.01 219.04 40.04 216.7 C35.22 206.26 28.18 199.36 17.29 195.27 C16.63 195.27 15.97 195.27 15.29 195.27 C16.87 203.41 19.4 211.25 21.98 219.12 C24.99 228.35 26.95 235.07 22.55 244.18 C19.75 248.78 15.51 251.96 10.29 253.27 C3.58 254.02 -2.25 253.5 -7.71 249.27 C-12.05 244.97 -14.03 240.57 -15.83 234.8 C-16.09 234.01 -16.35 233.22 -16.61 232.41 C-17.43 229.91 -18.23 227.4 -19.03 224.89 C-19.58 223.18 -20.14 221.48 -20.69 219.77 C-22.05 215.61 -23.39 211.44 -24.71 207.27 C-27.71 207.27 -27.71 207.27 -28.96 208.38 C-35.9 217.93 -37.99 228.71 -36.71 240.27 C-34.13 252.43 -27.61 260.93 -17.71 268.27 C-8.07 273.63 3.25 275.16 14.11 272.88 C26.24 269.29 34.22 261.36 40.22 250.58 C41.1 249.2 41.1 249.2 43.29 247.27 C46.33 246.86 49.23 246.97 52.29 247.27 C53.37 251.34 53.87 254.78 52.3 258.77 C43.69 273.58 31.79 282.18 15.4 286.8 C1.69 289.83 -13.05 287.24 -25.09 280.39 C-38.28 271.82 -45.9 260.18 -50.03 244.95 C-52.88 229.81 -50.08 214.8 -41.83 201.82 C-38.68 197.42 -34.69 193.91 -30.71 190.27 C-32.03 186.31 -33.35 182.35 -34.71 178.27 C-35.04 178.27 -35.37 178.27 -35.71 178.27 Z M-367.95 209.89 C-375.08 219.5 -375.92 230.7 -374.71 242.27 C-372.67 251.99 -366.45 260.89 -358.4 266.58 C-356.86 267.51 -355.3 268.4 -353.71 269.27 C-353.35 269.47 -353.35 269.47 -351.52 270.52 C-342.28 275.02 -330.3 274.84 -320.65 271.64 C-311.39 267.62 -301.59 259.86 -297.71 250.27 C-297.71 249.28 -297.71 248.29 -297.71 247.27 C-304.3 247.19 -310.85 247.28 -317.42 247.59 C-318.76 247.65 -320.11 247.71 -321.45 247.77 C-323.5 247.86 -325.55 247.95 -327.6 248.06 C-343.1 248.88 -343.1 248.88 -350.03 243.45 C-353.75 238.62 -353.91 234.34 -353.3 228.51 C-352.35 224.87 -351.18 222.28 -348 220.08 C-345.77 218.81 -343.51 217.65 -341.21 216.52 C-340.38 216.09 -339.55 215.67 -338.7 215.23 C-329.8 210.72 -320.77 206.46 -311.71 202.27 C-312.71 199.27 -312.71 199.27 -315.08 197.91 C-316.05 197.49 -317.02 197.07 -318.03 196.64 C-318.99 196.22 -319.96 195.79 -320.95 195.35 C-338.89 188.3 -356.08 196.08 -367.95 209.89 Z " fill="#000000" transform="translate(421.714599609375,2.734375)"/></svg>
