<svg xmlns="http://www.w3.org/2000/svg" viewBox="0 0 600 320"><title>Autódromo José Carlos Pace - Interlagos circuit outline</title><path d="M231.3,218.8 L246.4,277.3 L248.0,283.4 L249.6,287.0 L253.2,292.4 L255.1,293.9 L257.7,295.0 L260.4,295.0 L263.3,294.4 L264.8,293.6 L269.5,289.2 L274.1,284.1 L275.9,282.8 L278.3,282.0 L280.7,281.8 L284.1,282.9 L291.5,287.4 L297.3,289.8 L301.6,291.0 L305.6,291.5 L309.2,291.7 L314.5,291.0 L318.6,290.2 L323.6,288.4 L328.3,285.6 L333.0,282.0 L336.7,278.0 L339.7,273.8 L341.9,269.9 L343.7,265.4 L350.9,241.7 L353.9,229.8 L359.1,209.6 L365.5,183.7 L376.6,141.4 L380.6,126.1 L383.5,115.4 L384.8,110.4 L385.3,107.3 L385.0,104.3 L384.2,102.3 L382.6,99.9 L379.7,97.9 L376.4,96.5 L371.5,95.5 L357.0,92.7 L351.4,92.0 L347.9,92.3 L343.6,92.9 L339.5,94.1 L335.9,96.2 L332.5,98.2 L329.1,101.0 L325.8,104.7 L321.3,110.4 L306.6,130.3 L297.9,142.5 L290.5,153.0 L282.5,163.6 L278.2,169.5 L274.9,173.9 L272.7,176.5 L270.1,178.0 L266.5,179.3 L262.5,179.9 L256.5,179.7 L252.5,179.0 L249.4,178.0 L246.5,176.8 L241.7,174.1 L239.3,172.0 L237.7,169.9 L236.1,166.8 L234.9,162.6 L233.5,156.5 L232.3,150.9 L230.6,140.6 L230.3,136.3 L230.4,132.0 L231.4,128.7 L233.1,127.0 L234.2,126.4 L235.7,125.9 L237.6,125.7 L239.7,126.2 L241.9,127.1 L247.8,131.6 L250.1,133.0 L252.0,133.7 L253.9,134.1 L255.7,134.3 L257.7,134.0 L260.5,133.0 L263.7,130.4 L265.5,127.7 L266.5,124.7 L266.6,122.2 L266.2,119.3 L265.1,117.0 L262.6,113.3 L260.3,111.0 L252.3,103.1 L248.1,98.4 L245.3,94.1 L243.2,88.4 L241.6,81.4 L240.9,77.1 L240.5,73.3 L240.7,70.1 L242.0,68.0 L243.0,66.7 L244.6,66.2 L246.0,65.8 L247.8,66.1 L249.8,66.9 L259.6,78.1 L268.1,87.5 L269.6,88.7 L272.8,90.9 L275.7,92.2 L278.1,92.9 L281.1,93.4 L283.8,93.7 L287.0,93.8 L292.0,93.1 L295.8,91.8 L299.8,89.5 L303.9,86.2 L306.2,83.2 L308.6,79.8 L315.2,69.5 L322.4,57.4 L330.5,44.2 L331.1,42.7 L331.2,40.8 L330.7,39.0 L329.8,37.1 L327.9,35.4 L323.7,33.2 L317.5,30.9 L304.8,26.1 L302.4,25.5 L299.2,25.0 L292.9,25.7 L287.3,26.6 L275.1,29.2 L271.1,30.6 L263.1,34.0 L259.1,35.7 L249.7,40.8 L245.9,43.4 L242.7,46.2 L239.5,49.2 L236.8,52.4 L234.5,56.0 L232.3,60.7 L230.6,65.7 L227.9,75.8 L224.9,88.6 L222.9,100.7 L219.5,113.6 L217.4,123.2 L215.5,130.0 L214.9,134.8 L214.7,141.4 L215.1,149.3 L216.0,155.2 L217.4,162.0 L220.0,171.9 L227.4,203.1 L231.3,218.8" fill="none" stroke="#fff" stroke-width="7" stroke-linejoin="round" stroke-linecap="round"/></svg>
